<?xml version="1.0" standalone="no"?>
<!DOCTYPE svg PUBLIC "-//W3C//DTD SVG 20010904//EN"
 "http://www.w3.org/TR/2001/REC-SVG-20010904/DTD/svg10.dtd">
<svg version="1.0" xmlns="http://www.w3.org/2000/svg"
 width="3065.000000pt" height="3065.000000pt" viewBox="0 0 3065.000000 3065.000000"
 preserveAspectRatio="xMidYMid meet">

<g transform="translate(0.000000,3065.000000) scale(0.100000,-0.100000)"
fill="#000000" stroke="none">
<path d="M14880 30644 c-264 -10 -559 -26 -730 -40 -2639 -201 -5157 -1073
-7350 -2544 -1678 -1126 -3112 -2564 -4237 -4250 -873 -1309 -1558 -2790
-1974 -4270 -34 -118 -72 -243 -85 -277 -14 -35 -29 -93 -33 -130 -5 -38 -28
-142 -50 -233 -177 -722 -314 -1599 -375 -2400 -33 -423 -40 -650 -40 -1175 0
-525 7 -752 40 -1175 308 -4049 2205 -7793 5294 -10448 2385 -2050 5295 -3302
8420 -3622 553 -56 933 -74 1565 -74 525 0 752 7 1175 40 3173 241 6174 1458
8623 3496 1343 1119 2493 2467 3389 3973 1197 2014 1913 4284 2092 6635 33
423 40 650 40 1175 0 525 -7 752 -40 1175 -241 3173 -1458 6174 -3496 8623
-947 1137 -2061 2139 -3298 2964 -1720 1148 -3665 1936 -5695 2308 -663 121
-1287 195 -2005 235 -184 11 -1067 21 -1230 14z m-60 -1664 c0 -574 -2 -660
-15 -660 -92 0 -697 -94 -945 -146 -677 -144 -1352 -422 -2045 -842 -439 -267
-704 -470 -1010 -777 -278 -277 -478 -525 -900 -1115 -366 -512 -461 -634
-591 -761 -338 -328 -1004 -778 -1774 -1196 -354 -192 -377 -202 -493 -213
-223 -21 -436 -30 -738 -30 -428 0 -660 20 -881 76 -293 73 -742 281 -1331
616 l-157 90 52 67 c427 542 735 890 1217 1371 427 427 734 703 1186 1065
1304 1045 2838 1878 4425 2402 1162 383 2407 623 3595 693 99 6 200 12 225 13
25 2 75 4 113 5 l67 2 0 -660z m1495 634 c2401 -159 4740 -937 6779 -2253 521
-336 1064 -741 1536 -1146 551 -472 1154 -1077 1615 -1620 1272 -1499 2236
-3264 2791 -5109 l38 -129 -185 -181 c-307 -300 -683 -607 -951 -776 -279
-176 -719 -362 -1064 -450 -312 -80 -560 -109 -994 -117 -438 -7 -652 17 -972
108 -386 111 -970 371 -1336 595 -412 252 -762 576 -1025 947 -169 238 -349
575 -464 867 -58 147 -61 161 -72 285 -22 260 -31 501 -41 1055 -10 535 -16
693 -40 925 -113 1092 -624 2154 -1525 3171 -429 484 -1178 1164 -1577 1432
-628 422 -1480 749 -2483 956 -121 24 -276 54 -345 65 -69 12 -135 24 -147 26
l-23 5 0 686 0 687 133 -7 c72 -4 231 -13 352 -22z m-1495 -7999 c0 -3421 -4
-5695 -9 -5695 -28 0 -337 148 -496 238 -106 60 -347 218 -449 294 -483 365
-870 804 -1080 1229 -154 310 -182 494 -156 1024 18 362 16 696 -4 880 -62
552 -245 1041 -583 1555 -308 469 -704 908 -1114 1236 -117 94 -400 282 -538
359 -357 198 -758 342 -1214 435 -76 15 -140 30 -143 32 -2 2 62 49 143 104
413 279 768 569 964 787 98 109 308 387 599 792 415 579 544 741 774 970 239
238 464 408 846 637 640 384 1203 609 1825 728 194 37 534 88 593 89 l42 1 0
-5695z m1251 5595 c942 -190 1741 -496 2269 -870 298 -212 936 -796 1266
-1161 714 -788 1140 -1579 1288 -2389 53 -292 64 -458 76 -1115 10 -573 21
-839 45 -1113 13 -137 15 -525 15 -2447 l0 -2285 -2600 0 -2600 0 0 5710 0
5710 20 0 c12 0 111 -18 221 -40z m-12566 -4091 c522 -305 1045 -563 1388
-684 65 -23 118 -45 118 -48 0 -4 -60 -58 -133 -119 -273 -229 -619 -595 -917
-968 -332 -415 -741 -725 -1383 -1046 -284 -142 -813 -372 -826 -359 -6 5 17
73 110 330 350 963 819 1913 1386 2806 59 93 110 169 113 169 3 0 68 -36 144
-81z m4805 -839 c905 -74 1489 -280 2045 -724 128 -103 392 -367 521 -521 469
-564 692 -1018 754 -1540 16 -134 16 -444 0 -754 -30 -585 12 -914 165 -1296
111 -278 258 -528 478 -818 169 -222 416 -486 650 -693 l117 -104 -6016 0
-6017 0 7 133 c40 791 124 1475 266 2188 42 208 118 551 123 555 1 1 34 11 72
24 158 51 608 216 802 294 701 281 1263 584 1718 926 280 210 511 434 720 695
242 303 448 532 650 718 642 595 1257 863 2130 927 143 10 639 4 815 -10z
m14145 -4165 c414 -346 828 -596 1410 -850 551 -241 931 -354 1385 -410 172
-22 686 -31 920 -16 682 43 1167 163 1805 450 403 181 780 433 1238 826 71 60
132 111 136 113 5 1 11 -12 14 -30 3 -18 26 -143 51 -278 117 -642 185 -1241
222 -1957 l7 -133 -3802 0 -3801 0 0 1341 0 1340 148 -148 c81 -81 201 -193
267 -248z m-16292 -7197 c3 -3529 5 -3920 20 -4083 20 -222 21 -436 2 -575
-41 -307 -172 -763 -339 -1179 -83 -206 -147 -351 -156 -351 -14 0 -369 341
-595 571 -1339 1363 -2398 2992 -3099 4769 -580 1467 -898 2962 -982 4618 l-7
132 2577 0 2576 0 3 -3902z m8657 2458 l0 -1444 -292 287 c-487 477 -619 596
-848 763 -150 109 -249 166 -560 325 -341 175 -490 241 -695 309 -261 86 -525
133 -970 174 -847 77 -1304 33 -1948 -190 -349 -121 -606 -253 -986 -508 -526
-353 -783 -576 -1230 -1072 -57 -63 -110 -122 -118 -130 -11 -12 -13 222 -13
1458 l0 1472 3830 0 3830 0 0 -1444z m1828 1397 c-439 -389 -598 -552 -771
-793 l-47 -64 0 452 0 452 435 0 436 0 -53 -47z m12988 -85 c-4 -73 -13 -232
-22 -353 -159 -2400 -937 -4740 -2253 -6779 -419 -650 -913 -1290 -1445 -1876
-318 -349 -925 -946 -952 -936 -7 3 -282 240 -611 528 -721 631 -782 681
-1118 915 -265 185 -453 292 -790 448 -406 189 -549 240 -944 336 -508 124
-773 176 -1111 218 -288 36 -394 42 -920 51 -548 9 -672 18 -865 65 -281 67
-680 244 -943 418 -200 132 -319 233 -578 491 -432 433 -577 643 -921 1330
-91 182 -203 402 -249 488 l-84 157 0 141 0 140 4304 0 4303 0 7 543 c8 552 3
687 -30 911 -67 453 -221 865 -505 1351 -237 406 -468 712 -769 1019 -139 142
-400 387 -519 489 l-45 37 3533 0 3534 0 -7 -132z m-9646 111 c278 -25 575
-93 995 -229 509 -165 732 -304 1226 -765 413 -384 651 -692 917 -1180 203
-375 292 -670 318 -1052 l7 -103 -3802 0 -3801 0 0 88 c0 186 42 394 117 576
50 124 43 112 321 601 401 706 460 784 867 1149 288 259 367 317 629 459 420
229 769 334 1396 421 324 46 578 57 810 35z m-8750 -1995 c561 -43 794 -90
1080 -219 194 -87 632 -317 734 -386 56 -37 148 -108 206 -156 150 -126 839
-800 932 -912 154 -187 232 -321 388 -676 56 -126 133 -294 171 -372 l69 -141
0 -4467 0 -4468 -132 7 c-248 13 -573 36 -778 56 -2266 222 -4444 984 -6369
2229 -266 172 -541 364 -812 568 -123 93 -228 171 -233 175 -5 3 26 83 72 185
318 698 521 1324 604 1858 30 194 35 524 12 785 -16 180 -18 356 -21 1425 -4
1384 -13 1216 84 1600 77 306 117 414 296 799 103 223 102 221 414 572 425
479 664 691 1128 1000 301 201 507 308 760 394 475 162 765 192 1395 144z
m4685 -4799 c256 -327 675 -742 987 -978 422 -318 1004 -593 1488 -701 286
-63 434 -76 1040 -86 548 -9 660 -16 995 -66 208 -31 384 -67 710 -145 313
-76 406 -102 524 -146 127 -47 563 -251 684 -319 177 -100 448 -287 657 -452
168 -133 1181 -1025 1177 -1036 -5 -16 -428 -334 -669 -502 -1126 -787 -2394
-1423 -3688 -1851 -1250 -412 -2483 -638 -3867 -709 l-133 -7 0 3559 c0 1957
4 3554 8 3549 5 -6 44 -55 87 -110z"/>
</g>
</svg>
